<?xml version="1.0" standalone="no"?>
<!DOCTYPE svg PUBLIC "-//W3C//DTD SVG 20010904//EN"
 "http://www.w3.org/TR/2001/REC-SVG-20010904/DTD/svg10.dtd">
<svg version="1.0" xmlns="http://www.w3.org/2000/svg"
 width="512.000000pt" height="512.000000pt" viewBox="0 0 512.000000 512.000000"
 preserveAspectRatio="xMidYMid meet">
<metadata>
Created by potrace 1.14, written by Peter Selinger 2001-2017
</metadata>
<g transform="translate(0.000000,512.000000) scale(0.100000,-0.100000)"
fill="#000000" stroke="none">
<path d="M4574 5109 c-40 -20 -54 -60 -54 -159 0 -112 15 -145 72 -161 47 -12
99 9 117 47 18 40 14 200 -6 234 -26 45 -81 62 -129 39z"/>
<path d="M805 4905 c-124 -29 -214 -115 -250 -238 -15 -51 -16 -109 -12 -495
2 -240 7 -450 11 -466 4 -15 13 -56 21 -90 77 -328 340 -633 665 -769 35 -15
70 -29 80 -32 27 -8 98 -28 112 -30 53 -11 115 -19 125 -17 6 2 14 -2 17 -7 3
-5 6 -355 6 -777 1 -668 3 -773 16 -800 16 -33 46 -54 81 -57 16 -1 23 -10 28
-37 3 -19 16 -66 28 -104 17 -53 19 -70 9 -74 -16 -5 -42 -55 -42 -82 0 -61
60 -108 122 -96 30 5 36 1 66 -38 18 -24 46 -58 63 -75 21 -22 28 -38 24 -49
-27 -63 -10 -108 63 -161 70 -52 218 -126 307 -154 73 -23 103 -30 190 -44 71
-11 264 -5 346 11 82 17 90 17 190 -1 362 -65 714 47 974 311 132 134 137 143
391 647 70 139 128 269 135 299 31 143 -31 305 -149 396 -144 109 -360 103
-495 -16 l-37 -32 -35 31 c-140 123 -356 127 -503 11 -65 -51 -84 -82 -242
-393 -131 -259 -135 -265 -143 -230 -4 20 -6 369 -5 776 l3 740 30 4 c105 12
232 48 323 89 29 13 55 24 58 24 3 0 49 29 103 64 265 175 443 444 502 756 15
78 21 883 7 945 -48 219 -291 334 -493 232 -59 -29 -121 -96 -152 -163 l-28
-59 -5 -430 c-5 -420 -6 -431 -29 -488 -72 -181 -227 -284 -439 -290 -51 -2
-95 0 -97 3 -2 4 8 22 24 41 94 117 134 247 133 434 0 55 -5 121 -11 147 -53
232 -223 417 -446 483 -87 26 -287 26 -360 -1 -135 -48 -249 -128 -319 -224
-92 -125 -127 -229 -130 -390 -4 -186 38 -329 131 -446 18 -23 33 -43 33 -45
0 -12 -195 1 -246 16 -137 39 -245 140 -298 275 -25 64 -27 90 -29 525 l-2
390 -30 60 c-75 151 -231 228 -390 190z"/>
<path d="M4168 4703 c-64 -40 -63 -128 2 -166 21 -13 53 -17 125 -17 97 0 97
0 130 33 28 28 33 40 30 70 -4 46 -32 84 -69 91 -61 13 -190 6 -218 -11z"/>
<path d="M4828 4702 c-54 -33 -59 -109 -11 -154 21 -20 36 -23 119 -26 59 -3
106 1 124 8 28 11 60 62 60 94 0 28 -21 63 -50 79 -40 24 -204 23 -242 -1z"/>
<path d="M4585 4449 c-49 -14 -65 -53 -65 -159 0 -111 15 -145 73 -162 33 -10
44 -9 72 6 45 24 55 53 55 150 0 105 -12 140 -55 160 -37 18 -38 18 -80 5z"/>
<path d="M454 989 c-41 -20 -54 -60 -54 -164 0 -97 0 -97 34 -131 36 -36 55
-40 103 -24 48 17 63 55 63 159 0 49 -5 101 -11 114 -21 47 -87 69 -135 46z"/>
<path d="M54 589 c-24 -12 -54 -59 -54 -84 0 -33 32 -83 60 -95 18 -7 65 -11
124 -8 87 3 98 5 121 29 14 14 28 37 31 52 7 41 -22 94 -58 106 -39 14 -196
13 -224 0z"/>
<path d="M725 591 c-77 -32 -79 -154 -2 -181 39 -13 189 -13 220 1 28 13 57
58 57 89 0 31 -29 76 -57 89 -28 13 -188 14 -218 2z"/>
<path d="M434 306 c-34 -34 -34 -34 -34 -127 0 -119 17 -159 73 -172 48 -11
87 4 110 42 17 30 24 155 11 217 -7 36 -46 66 -91 71 -28 3 -40 -2 -69 -31z"/>
</g>
</svg>
